<svg xmlns="http://www.w3.org/2000/svg" viewBox="0 0 48 48"><defs><style>.cls-1{fill:#0173b2;}.cls-2{fill:#fff;}</style></defs><title>Asset 1</title><g id="Layer_2" data-name="Layer 2"><g id="Icons"><path class="cls-1" d="M48,24A24,24,0,1,1,24,0,24,24,0,0,1,48,24Z"/><rect class="cls-2" x="9" y="19" width="7" height="20"/><path class="cls-2" d="M12.5,16A3.5,3.5,0,1,0,9,12.5,3.5,3.5,0,0,0,12.5,16Z"/><path class="cls-2" d="M39,28c0-5.4-1.16-9-7.45-9-3,0-5.06,1.12-5.89,2.7h-.08V19H20V39h5.83V29.09c0-2.62.49-5.15,3.73-5.15s3.44,3,3.44,5.32V39h6Z"/><path class="cls-1" d="M48,24A24,24,0,1,1,24,0,24,24,0,0,1,48,24Z"/><rect class="cls-2" x="9" y="19" width="7" height="20"/><path class="cls-2" d="M12.5,16A3.5,3.5,0,1,0,9,12.5,3.5,3.5,0,0,0,12.5,16Z"/><path class="cls-2" d="M39,28c0-5.4-1.16-9-7.45-9-3,0-5.06,1.12-5.89,2.7h-.08V19H20V39h5.83V29.09c0-2.62.49-5.15,3.73-5.15s3.44,3,3.44,5.32V39h6Z"/><path class="cls-1" d="M48,24A24,24,0,1,1,24,0,24,24,0,0,1,48,24Z"/><rect class="cls-2" x="9" y="19" width="7" height="20"/><path class="cls-2" d="M12.5,16A3.5,3.5,0,1,0,9,12.5,3.5,3.5,0,0,0,12.5,16Z"/><path class="cls-2" d="M39,28c0-5.4-1.16-9-7.45-9-3,0-5.06,1.12-5.89,2.7h-.08V19H20V39h5.83V29.09c0-2.62.49-5.15,3.73-5.15s3.44,3,3.44,5.32V39h6Z"/></g></g></svg>